<svg xmlns="http://www.w3.org/2000/svg" style="display: none;">
  <!-- Settings Icon -->
  <symbol id="icon-settings" viewBox="0 0 24 24">
    <path fill="currentColor" d="M12 15.5A3.5 3.5 0 0 1 8.5 12A3.5 3.5 0 0 1 12 8.5a3.5 3.5 0 0 1 3.5 3.5a3.5 3.5 0 0 1-3.5 3.5m7.43-2.53c.04-.32.07-.64.07-.97c0-.33-.03-.66-.07-1l2.11-1.63c.19-.15.24-.42.12-.64l-2-3.46c-.12-.22-.39-.31-.61-.22l-2.49 1c-.52-.39-1.06-.73-1.69-.98l-.37-2.65A.506.506 0 0 0 14 2h-4c-.25 0-.46.18-.5.42l-.37 2.65c-.63.25-1.17.59-1.69.98l-2.49-1c-.22-.09-.49 0-.61.22l-2 3.46c-.13.22-.07.49.12.64L4.57 11c-.04.34-.07.67-.07 1c0 .33.03.65.07.97l-2.11 1.66c-.19.15-.25.42-.12.64l2 3.46c.12.22.39.3.61.22l2.49-1.01c.52.4 1.06.74 1.69.99l.37 2.65c.04.24.25.42.5.42h4c.25 0 .46-.18.5-.42l.37-2.65c.63-.26 1.17-.59 1.69-.99l2.49 1.01c.22.08.49 0 .61-.22l2-3.46c.12-.22.07-.49-.12-.64l-2.11-1.66Z"/>
  </symbol>

  <!-- Add Icon -->
  <symbol id="icon-add" viewBox="0 0 24 24">
    <path fill="currentColor" d="M19 13h-6v6h-2v-6H5v-2h6V5h2v6h6v2z"/>
  </symbol>

  <!-- Edit Icon -->
  <symbol id="icon-edit" viewBox="0 0 24 24">
    <path fill="currentColor" d="M3 17.25V21h3.75L17.81 9.94l-3.75-3.75L3 17.25zM20.71 7.04c.39-.39.39-1.02 0-1.41l-2.34-2.34c-.39-.39-1.02-.39-1.41 0l-1.83 1.83 3.75 3.75 1.83-1.83z"/>
  </symbol>

  <!-- Delete Icon -->
  <symbol id="icon-delete" viewBox="0 0 24 24">
    <path fill="currentColor" d="M6 19c0 1.1.9 2 2 2h8c1.1 0 2-.9 2-2V7H6v12zM19 4h-3.5l-1-1h-5l-1 1H5v2h14V4z"/>
  </symbol>

  <!-- Copy Icon -->
  <symbol id="icon-copy" viewBox="0 0 24 24">
    <path fill="currentColor" d="M16 1H4c-1.1 0-2 .9-2 2v14h2V3h12V1zm3 4H8c-1.1 0-2 .9-2 2v14c0 1.1.9 2 2 2h11c1.1 0 2-.9 2-2V7c0-1.1-.9-2-2-2zm0 16H8V7h11v14z"/>
  </symbol>

  <!-- Export Icon -->
  <symbol id="icon-export" viewBox="0 0 24 24">
    <path fill="currentColor" d="M14,2H6A2,2 0 0,0 4,4V20A2,2 0 0,0 6,22H18A2,2 0 0,0 20,20V8L14,2M18,20H6V4H13V9H18V20Z"/>
  </symbol>

  <!-- Import Icon -->
  <symbol id="icon-import" viewBox="0 0 24 24">
    <path fill="currentColor" d="M14,2H6A2,2 0 0,0 4,4V20A2,2 0 0,0 6,22H18A2,2 0 0,0 20,20V8L14,2M18,20H6V4H13V9H18V20Z"/>
    <path fill="currentColor" d="M12,11L16,15H13V19H11V15H8L12,11Z"/>
  </symbol>

  <!-- Search Icon -->
  <symbol id="icon-search" viewBox="0 0 24 24">
    <path fill="currentColor" d="M9.5,3A6.5,6.5 0 0,1 16,9.5C16,11.11 15.41,12.59 14.44,13.73L14.71,14H15.5L20.5,19L19,20.5L14,15.5V14.71L13.73,14.44C12.59,15.41 11.11,16 9.5,16A6.5,6.5 0 0,1 3,9.5A6.5,6.5 0 0,1 9.5,3M9.5,5C7,5 5,7 5,9.5C5,12 7,14 9.5,14C12,14 14,12 14,9.5C14,7 12,5 9.5,5Z"/>
  </symbol>

  <!-- Close Icon -->
  <symbol id="icon-close" viewBox="0 0 24 24">
    <path fill="currentColor" d="M19,6.41L17.59,5L12,10.59L6.41,5L5,6.41L10.59,12L5,17.59L6.41,19L12,13.41L17.59,19L19,17.59L13.41,12L19,6.41Z"/>
  </symbol>

  <!-- Star Icon -->
  <symbol id="icon-star" viewBox="0 0 24 24">
    <path fill="currentColor" d="M12,17.27L18.18,21L16.54,13.97L22,9.24L14.81,8.62L12,2L9.19,8.62L2,9.24L7.46,13.97L5.82,21L12,17.27Z"/>
  </symbol>

  <!-- Coffee Icon -->
  <symbol id="icon-coffee" viewBox="0 0 24 24">
    <path fill="currentColor" d="M2,21V19H20V21H2M20,8V5L18,5V8H20M20,3A2,2 0 0,1 22,5V8A2,2 0 0,1 20,10H18V13A4,4 0 0,1 14,17H8A4,4 0 0,1 4,13V3H20M16,5H6V13A2,2 0 0,0 8,15H14A2,2 0 0,0 16,13V5Z"/>
  </symbol>

  <!-- GitHub Icon -->
  <symbol id="icon-github" viewBox="0 0 24 24">
    <path fill="currentColor" d="M12,2A10,10 0 0,0 2,12C2,16.42 4.87,20.17 8.84,21.5C9.34,21.58 9.5,21.27 9.5,21C9.5,20.77 9.5,20.14 9.5,19.31C6.73,19.91 6.14,17.97 6.14,17.97C5.68,16.81 5.03,16.5 5.03,16.5C4.12,15.88 5.1,15.9 5.1,15.9C6.1,15.97 6.63,16.93 6.63,16.93C7.5,18.45 8.97,18 9.54,17.76C9.63,17.11 9.89,16.67 10.17,16.42C7.95,16.17 5.62,15.31 5.62,11.5C5.62,10.39 6,9.5 6.65,8.79C6.55,8.54 6.2,7.5 6.75,6.15C6.75,6.15 7.59,5.88 9.5,7.17C10.29,6.95 11.15,6.84 12,6.84C12.85,6.84 13.71,6.95 14.5,7.17C16.41,5.88 17.25,6.15 17.25,6.15C17.8,7.5 17.45,8.54 17.35,8.79C18,9.5 18.38,10.39 18.38,11.5C18.38,15.32 16.04,16.16 13.81,16.41C14.17,16.72 14.5,17.33 14.5,18.26C14.5,19.6 14.5,20.68 14.5,21C14.5,21.27 14.66,21.59 15.17,21.5C19.14,20.16 22,16.42 22,12A10,10 0 0,0 12,2Z"/>
  </symbol>

  <!-- Lightning/Magic Icon -->
  <symbol id="icon-magic" viewBox="0 0 24 24">
    <path fill="currentColor" d="M7,2V4H8V18A4,4 0 0,0 12,22A4,4 0 0,0 16,18V4H17V2H7M11,16C10.4,16 10,15.6 10,15C10,14.4 10.4,14 11,14C11.6,14 12,14.4 12,15C12,15.6 11.6,16 11,16M13,12C12.4,12 12,11.6 12,11C12,10.4 12.4,10 13,10C13.6,10 14,10.4 14,11C14,11.6 13.6,12 13,12M11,8C10.4,8 10,7.6 10,7C10,6.4 10.4,6 11,6C11.6,6 12,6.4 12,7C12,7.6 11.6,8 11,8Z"/>
  </symbol>
</svg>